<svg xmlns="http://www.w3.org/2000/svg" xmlns:xlink="http://www.w3.org/1999/xlink" xmlns:lucid="lucid" width="1180"
     height="2103">
    <g transform="translate(-60 -240)" lucid:page-tab-id="0_0">
        <path d="M0 0h1500v2500H0z" fill="#fff"/>
        <path d="M100 1906a6 6 0 0 1 6-6h88a6 6 0 0 1 6 6v8a14.48 14.48 0 0 1-4.24 10.24l-1.52 1.52A14.48 14.48 0 0 1 184 1930h-78a6 6 0 0 1-6-6z"
              fill="#f5fbff"/>
        <path d="M200 1900v20l-10 10h-90" stroke="#4881b3" stroke-width="3" fill="none"/>
        <path d="M100 1906a6 6 0 0 1 6-6h1068a6 6 0 0 1 6 6v288a6 6 0 0 1-6 6H106a6 6 0 0 1-6-6zM100 2050h20m15 0h20m15 0h20m15 0h20m15 0h20m15 0h20m15 0h20m15 0h20m15 0h20m15 0h20m15 0h20m15 0h20m15 0h20m15 0h20m15 0h20m15 0h20m15 0h20m15 0h20m15 0h20m15 0h20m15 0h20m15 0h20m15 0h20m15 0h20m15 0h20m15 0h20m15 0h20m15 0h20m15 0h20m15 0h20m15 0h20"
              stroke="#4881b3" stroke-width="3" fill="none"/>
        <use xlink:href="#a" transform="matrix(1,0,0,1,108,1900) translate(0 19.044444444444444)"/>
        <use xlink:href="#b" transform="matrix(1,0,0,1,112,1938) translate(0 16.177777777777777)"/>
        <use xlink:href="#c" transform="matrix(1,0,0,1,112,1938) translate(0 40.44444444444444)"/>
        <use xlink:href="#d" transform="matrix(1,0,0,1,112,2058) translate(0 16.177777777777777)"/>
        <use xlink:href="#e" transform="matrix(1,0,0,1,112,2058) translate(0 40.44444444444444)"/>
        <use xlink:href="#f" transform="matrix(1,0,0,1,112,2058) translate(43.81481481481481 40.44444444444444)"/>
        <path d="M232.63 432.63c0 6.97-5.66 12.62-12.63 12.62-6.97 0-12.63-5.65-12.63-12.63 0-6.97 5.66-12.62 12.63-12.62 6.97 0 12.63 5.65 12.63 12.63z"
              stroke="#4881b3" stroke-width="3" fill="#f5fbff"/>
        <path d="M220 445.25v29.35a14.6 14.6 0 0 0 4.22 10.26L260 521m-40-40.4L180 521m0-63.13h80" stroke="#4881b3"
              stroke-width="3" fill="none"/>
        <path d="M180 426a6 6 0 0 1 6-6h68a6 6 0 0 1 6 6v111a6 6 0 0 1-6 6h-68a6 6 0 0 1-6-6z" fill="none"/>
        <use xlink:href="#g" transform="matrix(1,0,0,1,100,521) translate(91.40802469135802 16.177777777777777)"/>
        <path d="M420 426a6 6 0 0 1 6-6h148a6 6 0 0 1 6 6v111a6 6 0 0 1-6 6H426a6 6 0 0 1-6-6z" stroke="#4881b3"
              stroke-width="3" fill="#f5fbff"/>
        <use xlink:href="#h" transform="matrix(1,0,0,1,428,428) translate(44.5033950617284 57.544444444444444)"/>
        <path d="M500 545.5v9.96m0 9.97v19.93m0 9.96v19.93m0 9.96v19.94m0 9.96v19.93m0 9.96v19.92m0 9.97v19.9m0 9.98v19.93m0 9.97v19.93m0 9.96v19.93m0 9.95v19.93m0 9.96v19.93m0 9.97v19.92m0 9.97v19.93m0 9.96v19.93m0 9.96v19.94m0 9.96v19.93m0 9.96v19.92m0 9.97v19.9m0 9.98v19.93m0 9.97v19.93m0 9.96v19.93m0 9.95v19.93m0 9.96v19.93m0 9.97v19.92m0 9.97v19.93m0 9.96v19.93m0 9.96v19.94m0 9.96v19.93m0 9.96v19.92m0 9.97v19.9m0 9.98v19.93m0 9.97V1512m0 9.96v19.93m0 9.95v19.93m0 9.96v19.93m0 9.97v19.92m0 9.97v19.93m0 9.96v19.93m0 9.96v19.94m0 9.96v19.93m0 9.96V1781m0 9.97v19.9m0 9.98v19.93m0 9.97v19.93m0 9.96v19.93m0 9.95v19.93m0 9.96v19.93m0 9.97v19.92m0 9.97v19.93m0 9.96v19.93m0 9.96v19.94m0 9.96v19.93m0 9.96v19.92m0 9.97v19.9m0 9.98v19.93m0 9.97v19.93m0 9.96v19.93m0 9.95v19.93m0 9.96v19.93m0 9.97v9.96"
              stroke="#224c72" stroke-width="2" fill="none"/>
        <path d="M501 545.53h-2v-1.03h2z" stroke="#224c72" stroke-width=".05" fill="#224c72"/>
        <path d="M500 2338.97v1.03M220 561v10.04m0 10.05v20.08m0 10.05v20.1m0 10.03v20.1m0 10.04v20.1m0 10.03v20.1m0 10.04v20.1m0 10.03V782m0 10.04v20.1m0 10.03v20.1m0 10.04v20.1m0 10.05v20.1m0 10.03v20.1m0 10.04v20.1m0 10.03v20.1m0 10.04v20.08m0 10.04v20.1m0 10.04v20.1m0 10.04v20.1m0 10.03v20.1m0 10.04v20.1m0 10.03v20.1m0 10.04v20.1m0 10.03v20.1m0 10.04v20.1m0 10.05v20.1m0 10.03v20.1m0 10.04v20.1m0 10.03v20.1m0 10.04v20.08m0 10.04v20.1m0 10.04v20.1m0 10.03v20.08m0 10.05v20.1m0 10.04v20.1m0 10.03v20.1m0 10.04v20.1m0 10.03v20.1m0 10.04v20.1m0 10.04v20.1m0 10.04v20.1m0 10.03v20.1m0 10.05v20.1m0 10.04v20.08m0 10.04v20.1m0 10.04v20.1m0 10.03v20.08m0 10.05v20.1m0 10.03v20.1m0 10.04v20.1m0 10.03v20.1m0 10.04v20.1m0 10.04v20.1m0 10.04v20.1m0 10.04v20.1m0 10.03v20.1m0 10.05v20.1m0 10.03v20.1m0 10.04v20.1m0 10.03V2339M220 561.03V560M220 2338.97v1.03M221 601.3h239M221.03 601.3H220"
              stroke="#224c72" stroke-width="2" fill="none"/>
        <path d="M475.26 601.3L461 605.93v-9.27z" stroke="#224c72" stroke-width="2" fill="#224c72"/>
        <use xlink:href="#i"
             transform="matrix(1,0,0,1,294.81851896117894,573.0316783722695) translate(0 16.177777777777777)"/>
        <use xlink:href="#j"
             transform="matrix(1,0,0,1,294.81851896117894,573.0316783722695) translate(5.617283950617283 16.177777777777777)"/>
        <use xlink:href="#k"
             transform="matrix(1,0,0,1,294.81851896117894,573.0316783722695) translate(53.869753086419756 16.177777777777777)"/>
        <path d="M740 426a6 6 0 0 1 6-6h148a6 6 0 0 1 6 6v111a6 6 0 0 1-6 6H746a6 6 0 0 1-6-6z" stroke="#4881b3"
              stroke-width="3" fill="#f5fbff"/>
        <use xlink:href="#l" transform="matrix(1,0,0,1,748,428) translate(28.775 57.544444444444444)"/>
        <path d="M820 545.5v9.96m0 9.97v19.93m0 9.96v19.93m0 9.96v19.94m0 9.96v19.93m0 9.96v19.92m0 9.97v19.9m0 9.98v19.93m0 9.97v19.93m0 9.96v19.93m0 9.95v19.93m0 9.96v19.93m0 9.97v19.92m0 9.97v19.93m0 9.96v19.93m0 9.96v19.94m0 9.96v19.93m0 9.96v19.92m0 9.97v19.9m0 9.98v19.93m0 9.97v19.93m0 9.96v19.93m0 9.95v19.93m0 9.96v19.93m0 9.97v19.92m0 9.97v19.93m0 9.96v19.93m0 9.96v19.94m0 9.96v19.93m0 9.96v19.92m0 9.97v19.9m0 9.98v19.93m0 9.97V1512m0 9.96v19.93m0 9.95v19.93m0 9.96v19.93m0 9.97v19.92m0 9.97v19.93m0 9.96v19.93m0 9.96v19.94m0 9.96v19.93m0 9.96V1781m0 9.97v19.9m0 9.98v19.93m0 9.97v19.93m0 9.96v19.93m0 9.95v19.93m0 9.96v19.93m0 9.97v19.92m0 9.97v19.93m0 9.96v19.93m0 9.96v19.94m0 9.96v19.93m0 9.96v19.92m0 9.97v19.9m0 9.98v19.93m0 9.97v19.93m0 9.96v19.93m0 9.95v19.93m0 9.96v19.93m0 9.97v9.96"
              stroke="#224c72" stroke-width="2" fill="none"/>
        <path d="M821 545.53h-2v-1.03h2z" stroke="#224c72" stroke-width=".05" fill="#224c72"/>
        <path d="M820 2338.97v1.03M522.5 654.1H780" stroke="#224c72" stroke-width="2" fill="none"/>
        <path d="M522.53 655.1h-1.03v-2h1.03z" stroke="#224c72" stroke-width=".05" fill="#224c72"/>
        <path d="M795.26 654.1L781 658.75v-9.27z" stroke="#224c72" stroke-width="2" fill="#224c72"/>
        <use xlink:href="#i"
             transform="matrix(1,0,0,1,580.2626065923799,625.840317212426) translate(0 16.177777777777777)"/>
        <use xlink:href="#m"
             transform="matrix(1,0,0,1,580.2626065923799,625.840317212426) translate(5.617283950617283 16.177777777777777)"/>
        <use xlink:href="#n"
             transform="matrix(1,0,0,1,580.2626065923799,625.840317212426) translate(39.32098765432099 16.177777777777777)"/>
        <use xlink:href="#o"
             transform="matrix(1,0,0,1,580.2626065923799,625.840317212426) translate(98.8641975308642 16.177777777777777)"/>
        <path d="M80 746a6 6 0 0 1 6-6h88a6 6 0 0 1 6 6v8a14.48 14.48 0 0 1-4.24 10.24l-1.52 1.52A14.48 14.48 0 0 1 164 770H86a6 6 0 0 1-6-6z"
              fill="#f5fbff"/>
        <path d="M180 740v20l-10 10H80" stroke="#4881b3" stroke-width="3" fill="none"/>
        <path d="M80 746a6 6 0 0 1 6-6h468a6 6 0 0 1 6 6v1028a6 6 0 0 1-6 6H86a6 6 0 0 1-6-6zM80 1260h20m15 0h20m15 0h20m15 0h20m15 0h20m15 0h20m15 0h20m15 0h20m15 0h20m15 0h20m15 0h20m15 0h20m15 0h20m15 0h20"
              stroke="#4881b3" stroke-width="3" fill="none"/>
        <use xlink:href="#a" transform="matrix(1,0,0,1,88,740) translate(0 19.044444444444444)"/>
        <use xlink:href="#p" transform="matrix(1,0,0,1,92,778) translate(0 16.177777777777777)"/>
        <use xlink:href="#q" transform="matrix(1,0,0,1,92,778) translate(21.289506172839502 16.177777777777777)"/>
        <use xlink:href="#r" transform="matrix(1,0,0,1,92,778) translate(0 40.44444444444444)"/>
        <use xlink:href="#s" transform="matrix(1,0,0,1,92,778) translate(16.851851851851848 40.44444444444444)"/>
        <use xlink:href="#t" transform="matrix(1,0,0,1,92,1268) translate(0 16.177777777777777)"/>
        <use xlink:href="#u" transform="matrix(1,0,0,1,92,1268) translate(77.40617283950616 16.177777777777777)"/>
        <use xlink:href="#v" transform="matrix(1,0,0,1,92,1268) translate(0 40.44444444444444)"/>
        <use xlink:href="#s" transform="matrix(1,0,0,1,92,1268) translate(42.63518518518518 40.44444444444444)"/>
        <path d="M797.5 722.52h-9.17m-9.16 0h-18.34m-9.16 0h-18.34m-9.16 0h-18.34m-9.16 0h-18.34m-9.16 0H650m-10 0h-20m-10 0h-20m-10 0h-20m-10 0h-10"
              stroke="#224c72" stroke-width="2" fill="none"/>
        <path d="M798.5 723.52h-1.03v-2h1.03z" stroke="#224c72" stroke-width=".05" fill="#224c72"/>
        <path d="M524.74 722.52l14.26-4.64v9.27z" stroke="#224c72" stroke-width="2" fill="#224c72"/>
        <use xlink:href="#i"
             transform="matrix(1,0,0,1,570.7694012328343,694.2515076333203) translate(0 16.177777777777777)"/>
        <use xlink:href="#w"
             transform="matrix(1,0,0,1,570.7694012328343,694.2515076333203) translate(5.617283950617283 16.177777777777777)"/>
        <use xlink:href="#x"
             transform="matrix(1,0,0,1,570.7694012328343,694.2515076333203) translate(35.83827160493827 16.177777777777777)"/>
        <use xlink:href="#n"
             transform="matrix(1,0,0,1,570.7694012328343,694.2515076333203) translate(58.3074074074074 16.177777777777777)"/>
        <use xlink:href="#y"
             transform="matrix(1,0,0,1,570.7694012328343,694.2515076333203) translate(117.85061728395061 16.177777777777777)"/>
        <path d="M477.5 805.33h-239" stroke="#224c72" stroke-width="2" fill="none"/>
        <path d="M478.5 806.33h-1.03v-2h1.03z" stroke="#224c72" stroke-width=".05" fill="#224c72"/>
        <path d="M223.24 805.33l14.26-4.63v9.27z" stroke="#224c72" stroke-width="2" fill="#224c72"/>
        <use xlink:href="#z"
             transform="matrix(1,0,0,1,280.241673007826,752.7983776852689) translate(0.0049999999999954525 16.177777777777777)"/>
        <use xlink:href="#A"
             transform="matrix(1,0,0,1,280.241673007826,752.7983776852689) translate(44.88709876543209 16.177777777777777)"/>
        <use xlink:href="#B"
             transform="matrix(1,0,0,1,280.241673007826,752.7983776852689) translate(87.52228395061726 16.177777777777777)"/>
        <use xlink:href="#C"
             transform="matrix(1,0,0,1,280.241673007826,752.7983776852689) translate(10.116111111111096 40.44444444444444)"/>
        <use xlink:href="#D"
             transform="matrix(1,0,0,1,280.241673007826,752.7983776852689) translate(33.652530864197516 40.44444444444444)"/>
        <use xlink:href="#E"
             transform="matrix(1,0,0,1,280.241673007826,752.7983776852689) translate(77.41117283950616 40.44444444444444)"/>
        <path d="M221 864.14h10.7m10.68 0h21.37m10.7 0h21.36m10.7 0h21.38m10.68 0h19.92m9.23 0h18.47m9.22 0h18.45m9.23 0h18.46m9.23 0H460M221.03 864.14H220"
              stroke="#224c72" stroke-width="2" fill="none"/>
        <path d="M475.26 864.14L461 868.78v-9.27z" stroke="#224c72" stroke-width="2" fill="#224c72"/>
        <use xlink:href="#F"
             transform="matrix(1,0,0,1,302.12095382864715,835.8746672876342) translate(0 16.177777777777777)"/>
        <use xlink:href="#G"
             transform="matrix(1,0,0,1,302.12095382864715,835.8746672876342) translate(43.75864197530864 16.177777777777777)"/>
        <path d="M477.5 927.75h-239" stroke="#224c72" stroke-width="2" fill="none"/>
        <path d="M478.5 928.75h-1.03v-2h1.03z" stroke="#224c72" stroke-width=".05" fill="#224c72"/>
        <path d="M223.24 927.75l14.26-4.63v9.27z" stroke="#224c72" stroke-width="2" fill="#224c72"/>
        <use xlink:href="#H"
             transform="matrix(1,0,0,1,294.818528398671,899.4850654502288) translate(0.005000000000002558 16.177777777777777)"/>
        <use xlink:href="#G"
             transform="matrix(1,0,0,1,294.818528398671,899.4850654502288) translate(58.36858024691359 16.177777777777777)"/>
        <path d="M522.5 1024.97H780" stroke="#224c72" stroke-width="2" fill="none"/>
        <path d="M522.53 1025.97h-1.03v-2h1.03z" stroke="#224c72" stroke-width=".05" fill="#224c72"/>
        <path d="M795.26 1024.97L781 1029.6v-9.27z" stroke="#224c72" stroke-width="2" fill="#224c72"/>
        <use xlink:href="#I"
             transform="matrix(1,0,0,1,596.0363947825329,996.7009775377943) translate(0 16.177777777777777)"/>
        <use xlink:href="#J"
             transform="matrix(1,0,0,1,596.0363947825329,996.7009775377943) translate(72.96851851851851 16.177777777777777)"/>
        <use xlink:href="#K"
             transform="matrix(1,0,0,1,596.0363947825329,996.7009775377943) translate(129.08518518518517 16.177777777777777)"/>
        <path d="M797.5 1084.98h-9.54m-9.53 0h-19.08m-9.53 0h-19.08m-9.54 0h-19.07m-9.54 0H673.5m-9.54 0H644.9m-9.53 0H616.3m-9.54 0H587.7m-9.55 0h-19.07m-9.54 0H540"
              stroke="#224c72" stroke-width="2" fill="none"/>
        <path d="M798.5 1085.98h-1.03v-2h1.03z" stroke="#224c72" stroke-width=".05" fill="#224c72"/>
        <path d="M524.74 1084.98l14.26-4.64v9.27z" stroke="#224c72" stroke-width="2" fill="#224c72"/>
        <use xlink:href="#L"
             transform="matrix(1,0,0,1,614.0225115847494,1056.710792309472) translate(0 16.177777777777777)"/>
        <use xlink:href="#K"
             transform="matrix(1,0,0,1,614.0225115847494,1056.710792309472) translate(56.11666666666667 16.177777777777777)"/>
        <path d="M1060 426a6 6 0 0 1 6-6h148a6 6 0 0 1 6 6v111a6 6 0 0 1-6 6h-148a6 6 0 0 1-6-6z" stroke="#4881b3"
              stroke-width="3" fill="#f5fbff"/>
        <use xlink:href="#M" transform="matrix(1,0,0,1,1068,428) translate(45.065123456790126 57.544444444444444)"/>
        <path d="M1140 545.5v9.96m0 9.97v19.93m0 9.96v19.93m0 9.96v19.94m0 9.96v19.93m0 9.96v19.92m0 9.97v19.9m0 9.98v19.93m0 9.97v19.93m0 9.96v19.93m0 9.95v19.93m0 9.96v19.93m0 9.97v19.92m0 9.97v19.93m0 9.96v19.93m0 9.96v19.94m0 9.96v19.93m0 9.96v19.92m0 9.97v19.9m0 9.98v19.93m0 9.97v19.93m0 9.96v19.93m0 9.95v19.93m0 9.96v19.93m0 9.97v19.92m0 9.97v19.93m0 9.96v19.93m0 9.96v19.94m0 9.96v19.93m0 9.96v19.92m0 9.97v19.9m0 9.98v19.93m0 9.97V1512m0 9.96v19.93m0 9.95v19.93m0 9.96v19.93m0 9.97v19.92m0 9.97v19.93m0 9.96v19.93m0 9.96v19.94m0 9.96v19.93m0 9.96V1781m0 9.97v19.9m0 9.98v19.93m0 9.97v19.93m0 9.96v19.93m0 9.95v19.93m0 9.96v19.93m0 9.97v19.92m0 9.97v19.93m0 9.96v19.93m0 9.96v19.94m0 9.96v19.93m0 9.96v19.92m0 9.97v19.9m0 9.98v19.93m0 9.97v19.93m0 9.96v19.93m0 9.95v19.93m0 9.96v19.93m0 9.97v9.96"
              stroke="#224c72" stroke-width="2" fill="none"/>
        <path d="M1141 545.53h-2v-1.03h2z" stroke="#224c72" stroke-width=".05" fill="#224c72"/>
        <path d="M1140 2338.97v1.03M221 982.96h10.7m10.68 0h21.37m10.7 0h21.36m10.7 0h21.38m10.68 0h19.92m9.23 0h18.47m9.22 0h18.45m9.23 0h18.46m9.23 0H460M221.03 982.96H220"
              stroke="#224c72" stroke-width="2" fill="none"/>
        <path d="M475.26 982.96L461 987.6v-9.27z" stroke="#224c72" stroke-width="2" fill="#224c72"/>
        <use xlink:href="#L"
             transform="matrix(1,0,0,1,295.94193404878075,954.6941006304916) translate(0 16.177777777777777)"/>
        <use xlink:href="#N"
             transform="matrix(1,0,0,1,295.94193404878075,954.6941006304916) translate(56.11666666666667 16.177777777777777)"/>
        <path d="M522.5 1140H1100" stroke="#224c72" stroke-width="2" fill="none"/>
        <path d="M522.53 1141h-1.03v-2h1.03z" stroke="#224c72" stroke-width=".05" fill="#224c72"/>
        <path d="M1115.26 1140l-14.26 4.63v-9.27z" stroke="#224c72" stroke-width="2" fill="#224c72"/>
        <use xlink:href="#F"
             transform="matrix(1,0,0,1,872.4216946574588,1111.7333390914864) translate(0 16.177777777777777)"/>
        <use xlink:href="#O"
             transform="matrix(1,0,0,1,872.4216946574588,1111.7333390914864) translate(43.75864197530864 16.177777777777777)"/>
        <path d="M477.5 1183h-33a6 6 0 0 0-6 6v29a6 6 0 0 0 6 6H460" stroke="#224c72" stroke-width="2" fill="none"/>
        <path d="M478.5 1184h-1.03v-2h1.03z" stroke="#224c72" stroke-width=".05" fill="#224c72"/>
        <path d="M475.26 1224l-14.26 4.63v-9.27z" stroke="#224c72" stroke-width="2" fill="#224c72"/>
        <use xlink:href="#P"
             transform="matrix(1,0,0,1,308.1555901041664,1179.2333290871595) translate(0 16.177777777777777)"/>
        <use xlink:href="#Q"
             transform="matrix(1,0,0,1,308.1555901041664,1179.2333290871595) translate(67.40740740740739 16.177777777777777)"/>
        <use xlink:href="#R"
             transform="matrix(1,0,0,1,308.1555901041664,1179.2333290871595) translate(0 40.44444444444444)"/>
        <path d="M221 1341.7h10.7m10.68 0h21.37m10.7 0h21.36m10.7 0h21.38m10.68 0h19.92m9.23 0h18.47m9.22 0h18.45m9.23 0h18.46m9.23 0H460M221.03 1341.7H220"
              stroke="#224c72" stroke-width="2" fill="none"/>
        <path d="M475.26 1341.7l-14.26 4.63v-9.27z" stroke="#224c72" stroke-width="2" fill="#224c72"/>
        <use xlink:href="#z"
             transform="matrix(1,0,0,1,280.24165461675807,1313.4244522874826) translate(0 16.177777777777777)"/>
        <use xlink:href="#A"
             transform="matrix(1,0,0,1,280.24165461675807,1313.4244522874826) translate(44.8820987654321 16.177777777777777)"/>
        <use xlink:href="#G"
             transform="matrix(1,0,0,1,280.24165461675807,1313.4244522874826) translate(87.51728395061727 16.177777777777777)"/>
        <path d="M522.5 1384.3H1100" stroke="#224c72" stroke-width="2" fill="none"/>
        <path d="M522.53 1385.3h-1.03v-2h1.03z" stroke="#224c72" stroke-width=".05" fill="#224c72"/>
        <path d="M1115.26 1384.3l-14.26 4.64v-9.27z" stroke="#224c72" stroke-width="2" fill="#224c72"/>
        <use xlink:href="#S"
             transform="matrix(1,0,0,1,633.4332621699348,1356.041569276251) translate(0 16.177777777777777)"/>
        <use xlink:href="#O"
             transform="matrix(1,0,0,1,633.4332621699348,1356.041569276251) translate(77.23765432098764 16.177777777777777)"/>
        <path d="M477.5 1435.5h-239" stroke="#224c72" stroke-width="2" fill="none"/>
        <path d="M478.5 1436.5h-1.03v-2h1.03z" stroke="#224c72" stroke-width=".05" fill="#224c72"/>
        <path d="M223.24 1435.5l14.26-4.64v9.27z" stroke="#224c72" stroke-width="2" fill="#224c72"/>
        <use xlink:href="#I"
             transform="matrix(1,0,0,1,266.2265677902326,1407.2304372600875) translate(0 16.177777777777777)"/>
        <use xlink:href="#T"
             transform="matrix(1,0,0,1,266.2265677902326,1407.2304372600875) translate(72.96851851851851 16.177777777777777)"/>
        <use xlink:href="#U"
             transform="matrix(1,0,0,1,266.2265677902326,1407.2304372600875) translate(133.52283950617283 16.177777777777777)"/>
        <path d="M221 1483.9h10.7m10.68 0h21.37m10.7 0h21.36m10.7 0h21.38m10.68 0h19.92m9.23 0h18.47m9.22 0h18.45m9.23 0h18.46m9.23 0H460M221.03 1483.9H220"
              stroke="#224c72" stroke-width="2" fill="none"/>
        <path d="M475.26 1483.9l-14.26 4.63v-9.27z" stroke="#224c72" stroke-width="2" fill="#224c72"/>
        <use xlink:href="#V"
             transform="matrix(1,0,0,1,293.7231741287871,1455.6242147742191) translate(0 16.177777777777777)"/>
        <use xlink:href="#N"
             transform="matrix(1,0,0,1,293.7231741287871,1455.6242147742191) translate(60.55432098765432 16.177777777777777)"/>
        <path d="M477.5 1525h-33a6 6 0 0 0-6 6v46a6 6 0 0 0 6 6H460" stroke="#224c72" stroke-width="2" fill="none"/>
        <path d="M478.5 1526h-1.03v-2h1.03z" stroke="#224c72" stroke-width=".05" fill="#224c72"/>
        <path d="M475.26 1583l-14.26 4.63v-9.27z" stroke="#224c72" stroke-width="2" fill="#224c72"/>
        <use xlink:href="#P"
             transform="matrix(1,0,0,1,308.1556098958335,1529.7333371102063) translate(0 16.177777777777777)"/>
        <use xlink:href="#Q"
             transform="matrix(1,0,0,1,308.1556098958335,1529.7333371102063) translate(67.40740740740739 16.177777777777777)"/>
        <use xlink:href="#R"
             transform="matrix(1,0,0,1,308.1556098958335,1529.7333371102063) translate(0 40.44444444444444)"/>
        <path d="M80 1806a6 6 0 0 1 6-6h88a6 6 0 0 1 6 6v8a14.48 14.48 0 0 1-4.24 10.24l-1.52 1.52A14.48 14.48 0 0 1 164 1830H86a6 6 0 0 1-6-6z"
              fill="#f5fbff"/>
        <path d="M180 1800v20l-10 10H80" stroke="#4881b3" stroke-width="3" fill="none"/>
        <path d="M80 1806a6 6 0 0 1 6-6h1108a6 6 0 0 1 6 6v428a6 6 0 0 1-6 6H86a6 6 0 0 1-6-6z" stroke="#4881b3"
              stroke-width="3" fill="none"/>
        <g>
            <use xlink:href="#W" transform="matrix(1,0,0,1,88,1800) translate(0 19.044444444444444)"/>
        </g>
        <g>
            <use xlink:href="#X" transform="matrix(1,0,0,1,92,1838) translate(0 16.177777777777777)"/>
            <use xlink:href="#Y" transform="matrix(1,0,0,1,92,1838) translate(48.19629629629629 16.177777777777777)"/>
            <use xlink:href="#C" transform="matrix(1,0,0,1,92,1838) translate(0 40.44444444444444)"/>
            <use xlink:href="#Z" transform="matrix(1,0,0,1,92,1838) translate(23.53641975308642 40.44444444444444)"/>
        </g>
        <path d="M477.5 1842.03h-239" stroke="#224c72" stroke-width="2" fill="none"/>
        <path d="M478.5 1843.03h-1.03v-2h1.03z" stroke="#224c72" stroke-width=".05" fill="#224c72"/>
        <path d="M223.24 1842.03l14.26-4.63v9.27z" stroke="#224c72" stroke-width="2" fill="#224c72"/>
        <g>
            <use xlink:href="#I"
                 transform="matrix(1,0,0,1,290.8865809731673,1813.764318910524) translate(0 16.177777777777777)"/>
            <use xlink:href="#aa"
                 transform="matrix(1,0,0,1,290.8865809731673,1813.764318910524) translate(72.96851851851851 16.177777777777777)"/>
        </g>
        <path d="M221 1939.2h10.7m10.68 0h21.37m10.7 0h21.36m10.7 0h21.38m10.68 0h19.92m9.23 0h18.47m9.22 0h18.45m9.23 0h18.46m9.23 0H460M221.03 1939.2H220"
              stroke="#224c72" stroke-width="2" fill="none"/>
        <path d="M475.26 1939.2L461 1943.8v-9.27z" stroke="#224c72" stroke-width="2" fill="#224c72"/>
        <g>
            <use xlink:href="#ab"
                 transform="matrix(1,0,0,1,299.8460269089668,1910.9223726365465) translate(0 16.177777777777777)"/>
            <use xlink:href="#G"
                 transform="matrix(1,0,0,1,299.8460269089668,1910.9223726365465) translate(48.30864197530864 16.177777777777777)"/>
        </g>
        <path d="M522.5 1973.18H780" stroke="#224c72" stroke-width="2" fill="none"/>
        <path d="M522.53 1974.18h-1.03v-2h1.03z" stroke="#224c72" stroke-width=".05" fill="#224c72"/>
        <path d="M795.26 1973.18L781 1977.8v-9.26z" stroke="#224c72" stroke-width="2" fill="#224c72"/>
        <g>
            <use xlink:href="#ab"
                 transform="matrix(1,0,0,1,566.6526218830522,1920.6451597295647) translate(0 16.177777777777777)"/>
            <use xlink:href="#ac"
                 transform="matrix(1,0,0,1,566.6526218830522,1920.6451597295647) translate(48.30864197530864 16.177777777777777)"/>
            <use xlink:href="#ad"
                 transform="matrix(1,0,0,1,566.6526218830522,1920.6451597295647) translate(105.54876543209875 16.177777777777777)"/>
            <use xlink:href="#ae"
                 transform="matrix(1,0,0,1,566.6526218830522,1920.6451597295647) translate(0 40.44444444444444)"/>
            <use xlink:href="#af"
                 transform="matrix(1,0,0,1,566.6526218830522,1920.6451597295647) translate(60.55432098765432 40.44444444444444)"/>
        </g>
        <path d="M819 2021.48h-9.97m-9.96 0h-19.94m-9.96 0h-19.94m-9.96 0h-19.94m-9.96 0h-19.94m-9.96 0h-19.94m-9.96 0h-19.94m-9.96 0h-19.94m-9.96 0h-19.94m-9.96 0h-19.94m-9.96 0h-20.4m-10.42 0H478.3m-10.43 0h-20.85m-10.43 0h-20.86m-10.42 0h-20.86m-10.42 0H353.2m-10.44 0H321.9m-10.42 0h-20.85m-10.42 0h-20.84m-10.43 0H238.5M818.97 2021.48H820"
              stroke="#224c72" stroke-width="2" fill="none"/>
        <path d="M223.24 2021.48l14.26-4.64v9.28z" stroke="#224c72" stroke-width="2" fill="#224c72"/>
        <g>
            <use xlink:href="#L"
                 transform="matrix(1,0,0,1,301.7032048379191,1993.2126824103568) translate(0 16.177777777777777)"/>
            <use xlink:href="#ag"
                 transform="matrix(1,0,0,1,301.7032048379191,1993.2126824103568) translate(56.11666666666667 16.177777777777777)"/>
        </g>
        <path d="M221 2097.5h10.7m10.68 0h21.37m10.7 0h21.36m10.7 0h21.38m10.68 0h19.92m9.23 0h18.47m9.22 0h18.45m9.23 0h18.46m9.23 0H460M221.03 2097.5H220"
              stroke="#224c72" stroke-width="2" fill="none"/>
        <path d="M475.26 2097.5l-14.26 4.64v-9.27z" stroke="#224c72" stroke-width="2" fill="#224c72"/>
        <g>
            <use xlink:href="#ah"
                 transform="matrix(1,0,0,1,279.14634025524924,2069.2417729920835) translate(0 16.177777777777777)"/>
            <use xlink:href="#ai"
                 transform="matrix(1,0,0,1,279.14634025524924,2069.2417729920835) translate(35.83827160493827 16.177777777777777)"/>
        </g>
        <path d="M522.5 2141.34H1100" stroke="#224c72" stroke-width="2" fill="none"/>
        <path d="M522.53 2142.34h-1.03v-2h1.03z" stroke="#224c72" stroke-width=".05" fill="#224c72"/>
        <path d="M1115.26 2141.34l-14.26 4.63v-9.27z" stroke="#224c72" stroke-width="2" fill="#224c72"/>
        <g>
            <use xlink:href="#P"
                 transform="matrix(1,0,0,1,678.0878886390698,2113.0702746115535) translate(0 16.177777777777777)"/>
            <use xlink:href="#O"
                 transform="matrix(1,0,0,1,678.0878886390698,2113.0702746115535) translate(67.40740740740739 16.177777777777777)"/>
        </g>
        <path d="M477.5 2298.32h-239" stroke="#224c72" stroke-width="2" fill="none"/>
        <path d="M478.5 2299.32h-1.03v-2h1.03z" stroke="#224c72" stroke-width=".05" fill="#224c72"/>
        <path d="M223.24 2298.32l14.26-4.63v9.26z" stroke="#224c72" stroke-width="2" fill="#224c72"/>
        <g>
            <use xlink:href="#aj"
                 transform="matrix(1,0,0,1,295.43646880240055,2270.0579866733856) translate(0 16.177777777777777)"/>
            <use xlink:href="#ak"
                 transform="matrix(1,0,0,1,295.43646880240055,2270.0579866733856) translate(58.3074074074074 16.177777777777777)"/>
        </g>
        <path d="M480 586a6 6 0 0 1 6-6h28a6 6 0 0 1 6 6v1728a6 6 0 0 1-6 6h-28a6 6 0 0 1-6-6zM800 646a6 6 0 0 1 6-6h28a6 6 0 0 1 6 6v1348a6 6 0 0 1-6 6h-28a6 6 0 0 1-6-6zM1120 1126a6 6 0 0 1 6-6h28a6 6 0 0 1 6 6v1028a6 6 0 0 1-6 6h-28a6 6 0 0 1-6-6zM80 266a6 6 0 0 1 6-6h1128a6 6 0 0 1 6 6v68a6 6 0 0 1-6 6H86a6 6 0 0 1-6-6z"
              stroke="#4881b3" stroke-width="3" fill="#f5fbff"/>
        <g>
            <use xlink:href="#al" transform="matrix(1,0,0,1,92,272) translate(334.34135802469154 37.45555555555553)"/>
            <use xlink:href="#am" transform="matrix(1,0,0,1,92,272) translate(583.9382716049382 37.45555555555553)"/>
        </g>
        <defs>
            <path fill="#1d262b" d="M205 0l-28-72H64L36 0H1l101-248h38L239 0h-34zm-38-99l-47-123c-12 45-31 82-46 123h93"
                  id="an"/>
            <path fill="#1d262b" d="M24 0v-261h32V0H24" id="ao"/>
            <path fill="#1d262b" d="M59-47c-2 24 18 29 38 22v24C64 9 27 4 27-40v-127H5v-23h24l9-43h21v43h35v23H59v120"
                  id="ap"/>
            <path fill="#1d262b"
                  d="M100-194c63 0 86 42 84 106H49c0 40 14 67 53 68 26 1 43-12 49-29l28 8c-11 28-37 45-77 45C44 4 14-33 15-96c1-61 26-98 85-98zm52 81c6-60-76-77-97-28-3 7-6 17-6 28h103"
                  id="aq"/>
            <path fill="#1d262b" d="M114-163C36-179 61-72 57 0H25l-1-190h30c1 12-1 29 2 39 6-27 23-49 58-41v29"
                  id="ar"/>
            <path fill="#1d262b"
                  d="M117-194c89-4 53 116 60 194h-32v-121c0-31-8-49-39-48C34-167 62-67 57 0H25l-1-190h30c1 10-1 24 2 32 11-22 29-35 61-36"
                  id="as"/>
            <path fill="#1d262b"
                  d="M141-36C126-15 110 5 73 4 37 3 15-17 15-53c-1-64 63-63 125-63 3-35-9-54-41-54-24 1-41 7-42 31l-33-3c5-37 33-52 76-52 45 0 72 20 72 64v82c-1 20 7 32 28 27v20c-31 9-61-2-59-35zM48-53c0 20 12 33 32 33 41-3 63-29 60-74-43 2-92-5-92 41"
                  id="at"/>
            <path fill="#1d262b" d="M24-231v-30h32v30H24zM24 0v-190h32V0H24" id="au"/>
            <path fill="#1d262b" d="M108 0H70L1-190h34L89-25l56-165h34" id="av"/>
            <g id="a">
                <use transform="matrix(0.056172839506172835,0,0,0.056172839506172835,0,0)" xlink:href="#an"/>
                <use transform="matrix(0.056172839506172835,0,0,0.056172839506172835,13.481481481481481,0)"
                     xlink:href="#ao"/>
                <use transform="matrix(0.056172839506172835,0,0,0.056172839506172835,17.919135802469135,0)"
                     xlink:href="#ap"/>
                <use transform="matrix(0.056172839506172835,0,0,0.056172839506172835,23.53641975308642,0)"
                     xlink:href="#aq"/>
                <use transform="matrix(0.056172839506172835,0,0,0.056172839506172835,34.77098765432099,0)"
                     xlink:href="#ar"/>
                <use transform="matrix(0.056172839506172835,0,0,0.056172839506172835,41.455555555555556,0)"
                     xlink:href="#as"/>
                <use transform="matrix(0.056172839506172835,0,0,0.056172839506172835,52.69012345679012,0)"
                     xlink:href="#at"/>
                <use transform="matrix(0.056172839506172835,0,0,0.056172839506172835,63.92469135802469,0)"
                     xlink:href="#ap"/>
                <use transform="matrix(0.056172839506172835,0,0,0.056172839506172835,69.54197530864197,0)"
                     xlink:href="#au"/>
                <use transform="matrix(0.056172839506172835,0,0,0.056172839506172835,73.97962962962961,0)"
                     xlink:href="#av"/>
                <use transform="matrix(0.056172839506172835,0,0,0.056172839506172835,84.09074074074073,0)"
                     xlink:href="#aq"/>
            </g>
            <path fill="#1d262b" d="M26 75v-336h71v23H56V52h41v23H26" id="aw"/>
            <path fill="#1d262b"
                  d="M135-143c-3-34-86-38-87 0 15 53 115 12 119 90S17 21 10-45l28-5c4 36 97 45 98 0-10-56-113-15-118-90-4-57 82-63 122-42 12 7 21 19 24 35"
                  id="ax"/>
            <g id="b">
                <use transform="matrix(0.056172839506172835,0,0,0.056172839506172835,0,0)" xlink:href="#aw"/>
                <use transform="matrix(0.056172839506172835,0,0,0.056172839506172835,5.617283950617283,0)"
                     xlink:href="#ax"/>
                <use transform="matrix(0.056172839506172835,0,0,0.056172839506172835,15.728395061728394,0)"
                     xlink:href="#at"/>
                <use transform="matrix(0.056172839506172835,0,0,0.056172839506172835,26.962962962962962,0)"
                     xlink:href="#av"/>
                <use transform="matrix(0.056172839506172835,0,0,0.056172839506172835,37.074074074074076,0)"
                     xlink:href="#aq"/>
            </g>
            <path fill="#1d262b"
                  d="M177-190C167-65 218 103 67 71c-23-6-38-20-44-43l32-5c15 47 100 32 89-28v-30C133-14 115 1 83 1 29 1 15-40 15-95c0-56 16-97 71-98 29-1 48 16 59 35 1-10 0-23 2-32h30zM94-22c36 0 50-32 50-73 0-42-14-75-50-75-39 0-46 34-46 75s6 73 46 73"
                  id="ay"/>
            <path fill="#1d262b"
                  d="M210-169c-67 3-38 105-44 169h-31v-121c0-29-5-50-35-48C34-165 62-65 56 0H25l-1-190h30c1 10-1 24 2 32 10-44 99-50 107 0 11-21 27-35 58-36 85-2 47 119 55 194h-31v-121c0-29-5-49-35-48"
                  id="az"/>
            <path fill="#1d262b" d="M3 75V52h41v-290H3v-23h71V75H3" id="aA"/>
            <g id="c">
                <use transform="matrix(0.056172839506172835,0,0,0.056172839506172835,0,0)" xlink:href="#ay"/>
                <use transform="matrix(0.056172839506172835,0,0,0.056172839506172835,11.234567901234566,0)"
                     xlink:href="#at"/>
                <use transform="matrix(0.056172839506172835,0,0,0.056172839506172835,22.469135802469133,0)"
                     xlink:href="#az"/>
                <use transform="matrix(0.056172839506172835,0,0,0.056172839506172835,39.26481481481481,0)"
                     xlink:href="#aq"/>
                <use transform="matrix(0.056172839506172835,0,0,0.056172839506172835,50.49938271604938,0)"
                     xlink:href="#aA"/>
            </g>
            <path fill="#1d262b"
                  d="M115-194c55 1 70 41 70 98S169 2 115 4C84 4 66-9 55-30l1 105H24l-1-265h31l2 30c10-21 28-34 59-34zm-8 174c40 0 45-34 45-75s-6-73-45-74c-42 0-51 32-51 76 0 43 10 73 51 73"
                  id="aB"/>
            <path fill="#1d262b"
                  d="M100-194c62-1 85 37 85 99 1 63-27 99-86 99S16-35 15-95c0-66 28-99 85-99zM99-20c44 1 53-31 53-75 0-43-8-75-51-75s-53 32-53 75 10 74 51 75"
                  id="aC"/>
            <path fill="#1d262b"
                  d="M85-194c31 0 48 13 60 33l-1-100h32l1 261h-30c-2-10 0-23-3-31C134-8 116 4 85 4 32 4 16-35 15-94c0-66 23-100 70-100zm9 24c-40 0-46 34-46 75 0 40 6 74 45 74 42 0 51-32 51-76 0-42-9-74-50-73"
                  id="aD"/>
            <g id="d">
                <use transform="matrix(0.056172839506172835,0,0,0.056172839506172835,0,0)" xlink:href="#aw"/>
                <use transform="matrix(0.056172839506172835,0,0,0.056172839506172835,5.617283950617283,0)"
                     xlink:href="#aB"/>
                <use transform="matrix(0.056172839506172835,0,0,0.056172839506172835,16.851851851851848,0)"
                     xlink:href="#ar"/>
                <use transform="matrix(0.056172839506172835,0,0,0.056172839506172835,23.536419753086413,0)"
                     xlink:href="#aC"/>
                <use transform="matrix(0.056172839506172835,0,0,0.056172839506172835,34.770987654320976,0)"
                     xlink:href="#av"/>
                <use transform="matrix(0.056172839506172835,0,0,0.056172839506172835,44.88209876543209,0)"
                     xlink:href="#au"/>
                <use transform="matrix(0.056172839506172835,0,0,0.056172839506172835,49.319753086419745,0)"
                     xlink:href="#aD"/>
                <use transform="matrix(0.056172839506172835,0,0,0.056172839506172835,60.5543209876543,0)"
                     xlink:href="#aq"/>
            </g>
            <path fill="#1d262b" d="M141 0L90-78 38 0H4l68-98-65-92h35l48 74 47-74h35l-64 92 68 98h-35" id="aE"/>
            <g id="e">
                <use transform="matrix(0.056172839506172835,0,0,0.056172839506172835,0,0)" xlink:href="#as"/>
                <use transform="matrix(0.056172839506172835,0,0,0.056172839506172835,11.234567901234566,0)"
                     xlink:href="#aq"/>
                <use transform="matrix(0.056172839506172835,0,0,0.056172839506172835,22.469135802469133,0)"
                     xlink:href="#aE"/>
                <use transform="matrix(0.056172839506172835,0,0,0.056172839506172835,32.58024691358024,0)"
                     xlink:href="#ap"/>
            </g>
            <path fill="#1d262b"
                  d="M96-169c-40 0-48 33-48 73s9 75 48 75c24 0 41-14 43-38l32 2c-6 37-31 61-74 61-59 0-76-41-82-99-10-93 101-131 147-64 4 7 5 14 7 22l-32 3c-4-21-16-35-41-35"
                  id="aF"/>
            <g id="f">
                <use transform="matrix(0.056172839506172835,0,0,0.056172839506172835,0,0)" xlink:href="#aF"/>
                <use transform="matrix(0.056172839506172835,0,0,0.056172839506172835,10.11111111111111,0)"
                     xlink:href="#aq"/>
                <use transform="matrix(0.056172839506172835,0,0,0.056172839506172835,21.345679012345677,0)"
                     xlink:href="#ao"/>
                <use transform="matrix(0.056172839506172835,0,0,0.056172839506172835,25.78333333333333,0)"
                     xlink:href="#ao"/>
                <use transform="matrix(0.056172839506172835,0,0,0.056172839506172835,30.220987654320986,0)"
                     xlink:href="#aA"/>
            </g>
            <path fill="#1d262b"
                  d="M30-248c87 1 191-15 191 75 0 78-77 80-158 76V0H30v-248zm33 125c57 0 124 11 124-50 0-59-68-47-124-48v98"
                  id="aG"/>
            <path fill="#1d262b" d="M179-190L93 31C79 59 56 82 12 73V49c39 6 53-20 64-50L1-190h34L92-34l54-156h33"
                  id="aH"/>
            <g id="g">
                <use transform="matrix(0.056172839506172835,0,0,0.056172839506172835,0,0)" xlink:href="#aG"/>
                <use transform="matrix(0.056172839506172835,0,0,0.056172839506172835,13.481481481481481,0)"
                     xlink:href="#ao"/>
                <use transform="matrix(0.056172839506172835,0,0,0.056172839506172835,17.919135802469135,0)"
                     xlink:href="#at"/>
                <use transform="matrix(0.056172839506172835,0,0,0.056172839506172835,29.1537037037037,0)"
                     xlink:href="#aH"/>
                <use transform="matrix(0.056172839506172835,0,0,0.056172839506172835,39.26481481481481,0)"
                     xlink:href="#aq"/>
                <use transform="matrix(0.056172839506172835,0,0,0.056172839506172835,50.49938271604938,0)"
                     xlink:href="#ar"/>
            </g>
            <path fill="#1d262b"
                  d="M143 4C61 4 22-44 18-125c-5-107 100-154 193-111 17 8 29 25 37 43l-32 9c-13-25-37-40-76-40-61 0-88 39-88 99 0 61 29 100 91 101 35 0 62-11 79-27v-45h-74v-28h105v86C228-13 192 4 143 4"
                  id="aI"/>
            <g id="h">
                <use transform="matrix(0.056172839506172835,0,0,0.056172839506172835,0,0)" xlink:href="#aI"/>
                <use transform="matrix(0.056172839506172835,0,0,0.056172839506172835,15.728395061728394,0)"
                     xlink:href="#at"/>
                <use transform="matrix(0.056172839506172835,0,0,0.056172839506172835,26.962962962962962,0)"
                     xlink:href="#az"/>
                <use transform="matrix(0.056172839506172835,0,0,0.056172839506172835,43.758641975308635,0)"
                     xlink:href="#aq"/>
            </g>
            <path fill="#1d262b"
                  d="M185-189c-5-48-123-54-124 2 14 75 158 14 163 119 3 78-121 87-175 55-17-10-28-26-33-46l33-7c5 56 141 63 141-1 0-78-155-14-162-118-5-82 145-84 179-34 5 7 8 16 11 25"
                  id="aJ"/>
            <g id="j">
                <use transform="matrix(0.056172839506172835,0,0,0.056172839506172835,0,0)" xlink:href="#aJ"/>
                <use transform="matrix(0.056172839506172835,0,0,0.056172839506172835,13.481481481481481,0)"
                     xlink:href="#ap"/>
                <use transform="matrix(0.056172839506172835,0,0,0.056172839506172835,19.098765432098766,0)"
                     xlink:href="#at"/>
                <use transform="matrix(0.056172839506172835,0,0,0.056172839506172835,30.333333333333332,0)"
                     xlink:href="#ar"/>
                <use transform="matrix(0.056172839506172835,0,0,0.056172839506172835,37.0179012345679,0)"
                     xlink:href="#ap"/>
            </g>
            <g id="k">
                <use transform="matrix(0.056172839506172835,0,0,0.056172839506172835,0,0)" xlink:href="#aI"/>
                <use transform="matrix(0.056172839506172835,0,0,0.056172839506172835,15.728395061728394,0)"
                     xlink:href="#at"/>
                <use transform="matrix(0.056172839506172835,0,0,0.056172839506172835,26.962962962962962,0)"
                     xlink:href="#az"/>
                <use transform="matrix(0.056172839506172835,0,0,0.056172839506172835,43.758641975308635,0)"
                     xlink:href="#aq"/>
            </g>
            <path fill="#1d262b"
                  d="M30-248c118-7 216 8 213 122C240-48 200 0 122 0H30v-248zM63-27c89 8 146-16 146-99s-60-101-146-95v194"
                  id="aK"/>
            <path fill="#1d262b"
                  d="M115-194c53 0 69 39 70 98 0 66-23 100-70 100C84 3 66-7 56-30L54 0H23l1-261h32v101c10-23 28-34 59-34zm-8 174c40 0 45-34 45-75 0-40-5-75-45-74-42 0-51 32-51 76 0 43 10 73 51 73"
                  id="aL"/>
            <g id="l">
                <use transform="matrix(0.056172839506172835,0,0,0.056172839506172835,0,0)" xlink:href="#aK"/>
                <use transform="matrix(0.056172839506172835,0,0,0.056172839506172835,14.548765432098763,0)"
                     xlink:href="#at"/>
                <use transform="matrix(0.056172839506172835,0,0,0.056172839506172835,25.78333333333333,0)"
                     xlink:href="#ap"/>
                <use transform="matrix(0.056172839506172835,0,0,0.056172839506172835,31.400617283950616,0)"
                     xlink:href="#at"/>
                <use transform="matrix(0.056172839506172835,0,0,0.056172839506172835,42.63518518518518,0)"
                     xlink:href="#aL"/>
                <use transform="matrix(0.056172839506172835,0,0,0.056172839506172835,53.86975308641975,0)"
                     xlink:href="#at"/>
                <use transform="matrix(0.056172839506172835,0,0,0.056172839506172835,65.10432098765432,0)"
                     xlink:href="#ax"/>
                <use transform="matrix(0.056172839506172835,0,0,0.056172839506172835,75.21543209876543,0)"
                     xlink:href="#aq"/>
            </g>
            <g id="m">
                <use transform="matrix(0.056172839506172835,0,0,0.056172839506172835,0,0)" xlink:href="#ay"/>
                <use transform="matrix(0.056172839506172835,0,0,0.056172839506172835,11.234567901234566,0)"
                     xlink:href="#aq"/>
                <use transform="matrix(0.056172839506172835,0,0,0.056172839506172835,22.469135802469133,0)"
                     xlink:href="#ap"/>
            </g>
            <g id="n">
                <use transform="matrix(0.056172839506172835,0,0,0.056172839506172835,0,0)" xlink:href="#ax"/>
                <use transform="matrix(0.056172839506172835,0,0,0.056172839506172835,10.11111111111111,0)"
                     xlink:href="#at"/>
                <use transform="matrix(0.056172839506172835,0,0,0.056172839506172835,21.345679012345677,0)"
                     xlink:href="#av"/>
                <use transform="matrix(0.056172839506172835,0,0,0.056172839506172835,31.456790123456788,0)"
                     xlink:href="#aq"/>
                <use transform="matrix(0.056172839506172835,0,0,0.056172839506172835,42.691358024691354,0)"
                     xlink:href="#aD"/>
            </g>
            <g id="o">
                <use transform="matrix(0.056172839506172835,0,0,0.056172839506172835,0,0)" xlink:href="#ay"/>
                <use transform="matrix(0.056172839506172835,0,0,0.056172839506172835,11.234567901234566,0)"
                     xlink:href="#at"/>
                <use transform="matrix(0.056172839506172835,0,0,0.056172839506172835,22.469135802469133,0)"
                     xlink:href="#az"/>
                <use transform="matrix(0.056172839506172835,0,0,0.056172839506172835,39.26481481481481,0)"
                     xlink:href="#aq"/>
                <use transform="matrix(0.056172839506172835,0,0,0.056172839506172835,50.49938271604938,0)"
                     xlink:href="#ax"/>
            </g>
            <path fill="#1d262b" d="M101-234c-31-9-42 10-38 44h38v23H63V0H32v-167H5v-23h27c-7-52 17-82 69-68v24"
                  id="aM"/>
            <g id="p">
                <use transform="matrix(0.056172839506172835,0,0,0.056172839506172835,0,0)" xlink:href="#aw"/>
                <use transform="matrix(0.056172839506172835,0,0,0.056172839506172835,5.617283950617283,0)"
                     xlink:href="#au"/>
                <use transform="matrix(0.056172839506172835,0,0,0.056172839506172835,10.054938271604936,0)"
                     xlink:href="#aM"/>
            </g>
            <g id="q">
                <use transform="matrix(0.056172839506172835,0,0,0.056172839506172835,0,0)" xlink:href="#ao"/>
                <use transform="matrix(0.056172839506172835,0,0,0.056172839506172835,4.4376543209876536,0)"
                     xlink:href="#aC"/>
                <use transform="matrix(0.056172839506172835,0,0,0.056172839506172835,15.67222222222222,0)"
                     xlink:href="#at"/>
                <use transform="matrix(0.056172839506172835,0,0,0.056172839506172835,26.906790123456787,0)"
                     xlink:href="#aD"/>
                <use transform="matrix(0.056172839506172835,0,0,0.056172839506172835,38.14135802469136,0)"
                     xlink:href="#au"/>
                <use transform="matrix(0.056172839506172835,0,0,0.056172839506172835,42.57901234567901,0)"
                     xlink:href="#as"/>
                <use transform="matrix(0.056172839506172835,0,0,0.056172839506172835,53.813580246913574,0)"
                     xlink:href="#ay"/>
            </g>
            <use transform="matrix(0.056172839506172835,0,0,0.056172839506172835,0,0)" xlink:href="#at" id="r"/>
            <g id="s">
                <use transform="matrix(0.056172839506172835,0,0,0.056172839506172835,0,0)" xlink:href="#ay"/>
                <use transform="matrix(0.056172839506172835,0,0,0.056172839506172835,11.234567901234566,0)"
                     xlink:href="#at"/>
                <use transform="matrix(0.056172839506172835,0,0,0.056172839506172835,22.469135802469133,0)"
                     xlink:href="#az"/>
                <use transform="matrix(0.056172839506172835,0,0,0.056172839506172835,39.26481481481481,0)"
                     xlink:href="#aq"/>
                <use transform="matrix(0.056172839506172835,0,0,0.056172839506172835,50.49938271604938,0)"
                     xlink:href="#aA"/>
            </g>
            <g id="t">
                <use transform="matrix(0.056172839506172835,0,0,0.056172839506172835,0,0)" xlink:href="#aw"/>
                <use transform="matrix(0.056172839506172835,0,0,0.056172839506172835,5.617283950617283,0)"
                     xlink:href="#ax"/>
                <use transform="matrix(0.056172839506172835,0,0,0.056172839506172835,15.728395061728394,0)"
                     xlink:href="#ap"/>
                <use transform="matrix(0.056172839506172835,0,0,0.056172839506172835,21.345679012345677,0)"
                     xlink:href="#at"/>
                <use transform="matrix(0.056172839506172835,0,0,0.056172839506172835,32.58024691358024,0)"
                     xlink:href="#ar"/>
                <use transform="matrix(0.056172839506172835,0,0,0.056172839506172835,39.264814814814805,0)"
                     xlink:href="#ap"/>
                <use transform="matrix(0.056172839506172835,0,0,0.056172839506172835,44.88209876543209,0)"
                     xlink:href="#au"/>
                <use transform="matrix(0.056172839506172835,0,0,0.056172839506172835,49.319753086419745,0)"
                     xlink:href="#as"/>
                <use transform="matrix(0.056172839506172835,0,0,0.056172839506172835,60.5543209876543,0)"
                     xlink:href="#ay"/>
            </g>
            <use transform="matrix(0.056172839506172835,0,0,0.056172839506172835,0,0)" xlink:href="#at" id="u"/>
            <path fill="#1d262b" d="M206 0h-36l-40-164L89 0H53L-1-190h32L70-26l43-164h34l41 164 42-164h31" id="aN"/>
            <g id="v">
                <use transform="matrix(0.056172839506172835,0,0,0.056172839506172835,0,0)" xlink:href="#as"/>
                <use transform="matrix(0.056172839506172835,0,0,0.056172839506172835,11.234567901234566,0)"
                     xlink:href="#aq"/>
                <use transform="matrix(0.056172839506172835,0,0,0.056172839506172835,22.469135802469133,0)"
                     xlink:href="#aN"/>
            </g>
            <g id="w">
                <use transform="matrix(0.056172839506172835,0,0,0.056172839506172835,0,0)" xlink:href="#ao"/>
                <use transform="matrix(0.056172839506172835,0,0,0.056172839506172835,4.4376543209876536,0)"
                     xlink:href="#au"/>
                <use transform="matrix(0.056172839506172835,0,0,0.056172839506172835,8.875308641975307,0)"
                     xlink:href="#ax"/>
                <use transform="matrix(0.056172839506172835,0,0,0.056172839506172835,18.986419753086416,0)"
                     xlink:href="#ap"/>
            </g>
            <g id="x">
                <use transform="matrix(0.056172839506172835,0,0,0.056172839506172835,0,0)" xlink:href="#aC"/>
                <use transform="matrix(0.056172839506172835,0,0,0.056172839506172835,11.234567901234566,0)"
                     xlink:href="#aM"/>
            </g>
            <g id="y">
                <use transform="matrix(0.056172839506172835,0,0,0.056172839506172835,0,0)" xlink:href="#ay"/>
                <use transform="matrix(0.056172839506172835,0,0,0.056172839506172835,11.234567901234566,0)"
                     xlink:href="#at"/>
                <use transform="matrix(0.056172839506172835,0,0,0.056172839506172835,22.469135802469133,0)"
                     xlink:href="#az"/>
                <use transform="matrix(0.056172839506172835,0,0,0.056172839506172835,39.26481481481481,0)"
                     xlink:href="#aq"/>
                <use transform="matrix(0.056172839506172835,0,0,0.056172839506172835,50.49938271604938,0)"
                     xlink:href="#ax"/>
            </g>
            <g id="z">
                <use transform="matrix(0.056172839506172835,0,0,0.056172839506172835,0,0)" xlink:href="#ax"/>
                <use transform="matrix(0.056172839506172835,0,0,0.056172839506172835,10.11111111111111,0)"
                     xlink:href="#ap"/>
                <use transform="matrix(0.056172839506172835,0,0,0.056172839506172835,15.728395061728394,0)"
                     xlink:href="#at"/>
                <use transform="matrix(0.056172839506172835,0,0,0.056172839506172835,26.962962962962962,0)"
                     xlink:href="#ar"/>
                <use transform="matrix(0.056172839506172835,0,0,0.056172839506172835,33.64753086419753,0)"
                     xlink:href="#ap"/>
            </g>
            <g id="A">
                <use transform="matrix(0.056172839506172835,0,0,0.056172839506172835,0,0)" xlink:href="#as"/>
                <use transform="matrix(0.056172839506172835,0,0,0.056172839506172835,11.234567901234566,0)"
                     xlink:href="#aq"/>
                <use transform="matrix(0.056172839506172835,0,0,0.056172839506172835,22.469135802469133,0)"
                     xlink:href="#aN"/>
            </g>
            <g id="B">
                <use transform="matrix(0.056172839506172835,0,0,0.056172839506172835,0,0)" xlink:href="#ay"/>
                <use transform="matrix(0.056172839506172835,0,0,0.056172839506172835,11.234567901234566,0)"
                     xlink:href="#at"/>
                <use transform="matrix(0.056172839506172835,0,0,0.056172839506172835,22.469135802469133,0)"
                     xlink:href="#az"/>
                <use transform="matrix(0.056172839506172835,0,0,0.056172839506172835,39.26481481481481,0)"
                     xlink:href="#aq"/>
            </g>
            <g id="C">
                <use transform="matrix(0.056172839506172835,0,0,0.056172839506172835,0,0)" xlink:href="#aC"/>
                <use transform="matrix(0.056172839506172835,0,0,0.056172839506172835,11.234567901234566,0)"
                     xlink:href="#ar"/>
            </g>
            <g id="D">
                <use transform="matrix(0.056172839506172835,0,0,0.056172839506172835,0,0)" xlink:href="#ao"/>
                <use transform="matrix(0.056172839506172835,0,0,0.056172839506172835,4.4376543209876536,0)"
                     xlink:href="#aC"/>
                <use transform="matrix(0.056172839506172835,0,0,0.056172839506172835,15.67222222222222,0)"
                     xlink:href="#at"/>
                <use transform="matrix(0.056172839506172835,0,0,0.056172839506172835,26.906790123456787,0)"
                     xlink:href="#aD"/>
            </g>
            <g id="E">
                <use transform="matrix(0.056172839506172835,0,0,0.056172839506172835,0,0)" xlink:href="#ay"/>
                <use transform="matrix(0.056172839506172835,0,0,0.056172839506172835,11.234567901234566,0)"
                     xlink:href="#at"/>
                <use transform="matrix(0.056172839506172835,0,0,0.056172839506172835,22.469135802469133,0)"
                     xlink:href="#az"/>
                <use transform="matrix(0.056172839506172835,0,0,0.056172839506172835,39.26481481481481,0)"
                     xlink:href="#aq"/>
            </g>
            <g id="F">
                <use transform="matrix(0.056172839506172835,0,0,0.056172839506172835,0,0)" xlink:href="#ao"/>
                <use transform="matrix(0.056172839506172835,0,0,0.056172839506172835,4.4376543209876536,0)"
                     xlink:href="#aC"/>
                <use transform="matrix(0.056172839506172835,0,0,0.056172839506172835,15.67222222222222,0)"
                     xlink:href="#at"/>
                <use transform="matrix(0.056172839506172835,0,0,0.056172839506172835,26.906790123456787,0)"
                     xlink:href="#aD"/>
            </g>
            <g id="G">
                <use transform="matrix(0.056172839506172835,0,0,0.056172839506172835,0,0)" xlink:href="#ay"/>
                <use transform="matrix(0.056172839506172835,0,0,0.056172839506172835,11.234567901234566,0)"
                     xlink:href="#at"/>
                <use transform="matrix(0.056172839506172835,0,0,0.056172839506172835,22.469135802469133,0)"
                     xlink:href="#az"/>
                <use transform="matrix(0.056172839506172835,0,0,0.056172839506172835,39.26481481481481,0)"
                     xlink:href="#aq"/>
            </g>
            <g id="H">
                <use transform="matrix(0.056172839506172835,0,0,0.056172839506172835,0,0)" xlink:href="#ax"/>
                <use transform="matrix(0.056172839506172835,0,0,0.056172839506172835,10.11111111111111,0)"
                     xlink:href="#aq"/>
                <use transform="matrix(0.056172839506172835,0,0,0.056172839506172835,21.345679012345677,0)"
                     xlink:href="#ao"/>
                <use transform="matrix(0.056172839506172835,0,0,0.056172839506172835,25.78333333333333,0)"
                     xlink:href="#aq"/>
                <use transform="matrix(0.056172839506172835,0,0,0.056172839506172835,37.0179012345679,0)"
                     xlink:href="#aF"/>
                <use transform="matrix(0.056172839506172835,0,0,0.056172839506172835,47.129012345679016,0)"
                     xlink:href="#ap"/>
            </g>
            <path fill="#1d262b"
                  d="M145-31C134-9 116 4 85 4 32 4 16-35 15-94c0-59 17-99 70-100 32-1 48 14 60 33 0-11-1-24 2-32h30l-1 268h-32zM93-21c41 0 51-33 51-76s-8-73-50-73c-40 0-46 35-46 75s5 74 45 74"
                  id="aO"/>
            <path fill="#1d262b"
                  d="M84 4C-5 8 30-112 23-190h32v120c0 31 7 50 39 49 72-2 45-101 50-169h31l1 190h-30c-1-10 1-25-2-33-11 22-28 36-60 37"
                  id="aP"/>
            <g id="I">
                <use transform="matrix(0.056172839506172835,0,0,0.056172839506172835,0,0)" xlink:href="#ar"/>
                <use transform="matrix(0.056172839506172835,0,0,0.056172839506172835,6.684567901234567,0)"
                     xlink:href="#aq"/>
                <use transform="matrix(0.056172839506172835,0,0,0.056172839506172835,17.919135802469135,0)"
                     xlink:href="#aO"/>
                <use transform="matrix(0.056172839506172835,0,0,0.056172839506172835,29.1537037037037,0)"
                     xlink:href="#aP"/>
                <use transform="matrix(0.056172839506172835,0,0,0.056172839506172835,40.38827160493827,0)"
                     xlink:href="#aq"/>
                <use transform="matrix(0.056172839506172835,0,0,0.056172839506172835,51.62283950617284,0)"
                     xlink:href="#ax"/>
                <use transform="matrix(0.056172839506172835,0,0,0.056172839506172835,61.73395061728396,0)"
                     xlink:href="#ap"/>
            </g>
            <g id="J">
                <use transform="matrix(0.056172839506172835,0,0,0.056172839506172835,0,0)" xlink:href="#ay"/>
                <use transform="matrix(0.056172839506172835,0,0,0.056172839506172835,11.234567901234566,0)"
                     xlink:href="#at"/>
                <use transform="matrix(0.056172839506172835,0,0,0.056172839506172835,22.469135802469133,0)"
                     xlink:href="#az"/>
                <use transform="matrix(0.056172839506172835,0,0,0.056172839506172835,39.26481481481481,0)"
                     xlink:href="#aq"/>
            </g>
            <g id="K">
                <use transform="matrix(0.056172839506172835,0,0,0.056172839506172835,0,0)" xlink:href="#aM"/>
                <use transform="matrix(0.056172839506172835,0,0,0.056172839506172835,5.617283950617283,0)"
                     xlink:href="#au"/>
                <use transform="matrix(0.056172839506172835,0,0,0.056172839506172835,10.054938271604936,0)"
                     xlink:href="#ao"/>
                <use transform="matrix(0.056172839506172835,0,0,0.056172839506172835,14.492592592592592,0)"
                     xlink:href="#aq"/>
                <use transform="matrix(0.056172839506172835,0,0,0.056172839506172835,25.727160493827157,0)"
                     xlink:href="#ax"/>
            </g>
            <g id="L">
                <use transform="matrix(0.056172839506172835,0,0,0.056172839506172835,0,0)" xlink:href="#ay"/>
                <use transform="matrix(0.056172839506172835,0,0,0.056172839506172835,11.234567901234566,0)"
                     xlink:href="#at"/>
                <use transform="matrix(0.056172839506172835,0,0,0.056172839506172835,22.469135802469133,0)"
                     xlink:href="#az"/>
                <use transform="matrix(0.056172839506172835,0,0,0.056172839506172835,39.26481481481481,0)"
                     xlink:href="#aq"/>
            </g>
            <path fill="#1d262b"
                  d="M160-131c35 5 61 23 61 61C221 17 115-2 30 0v-248c76 3 177-17 177 60 0 33-19 50-47 57zm-97-11c50-1 110 9 110-42 0-47-63-36-110-37v79zm0 115c55-2 124 14 124-45 0-56-70-42-124-44v89"
                  id="aQ"/>
            <g id="M">
                <use transform="matrix(0.056172839506172835,0,0,0.056172839506172835,0,0)" xlink:href="#aQ"/>
                <use transform="matrix(0.056172839506172835,0,0,0.056172839506172835,13.481481481481481,0)"
                     xlink:href="#aC"/>
                <use transform="matrix(0.056172839506172835,0,0,0.056172839506172835,24.716049382716047,0)"
                     xlink:href="#at"/>
                <use transform="matrix(0.056172839506172835,0,0,0.056172839506172835,35.95061728395061,0)"
                     xlink:href="#ar"/>
                <use transform="matrix(0.056172839506172835,0,0,0.056172839506172835,42.63518518518518,0)"
                     xlink:href="#aD"/>
            </g>
            <g id="N">
                <use transform="matrix(0.056172839506172835,0,0,0.056172839506172835,0,0)" xlink:href="#as"/>
                <use transform="matrix(0.056172839506172835,0,0,0.056172839506172835,11.234567901234566,0)"
                     xlink:href="#at"/>
                <use transform="matrix(0.056172839506172835,0,0,0.056172839506172835,22.469135802469133,0)"
                     xlink:href="#az"/>
                <use transform="matrix(0.056172839506172835,0,0,0.056172839506172835,39.26481481481481,0)"
                     xlink:href="#aq"/>
            </g>
            <g id="O">
                <use transform="matrix(0.056172839506172835,0,0,0.056172839506172835,0,0)" xlink:href="#aL"/>
                <use transform="matrix(0.056172839506172835,0,0,0.056172839506172835,11.234567901234566,0)"
                     xlink:href="#aC"/>
                <use transform="matrix(0.056172839506172835,0,0,0.056172839506172835,22.469135802469133,0)"
                     xlink:href="#at"/>
                <use transform="matrix(0.056172839506172835,0,0,0.056172839506172835,33.703703703703695,0)"
                     xlink:href="#ar"/>
                <use transform="matrix(0.056172839506172835,0,0,0.056172839506172835,40.38827160493826,0)"
                     xlink:href="#aD"/>
            </g>
            <g id="P">
                <use transform="matrix(0.056172839506172835,0,0,0.056172839506172835,0,0)" xlink:href="#aP"/>
                <use transform="matrix(0.056172839506172835,0,0,0.056172839506172835,11.234567901234566,0)"
                     xlink:href="#aB"/>
                <use transform="matrix(0.056172839506172835,0,0,0.056172839506172835,22.469135802469133,0)"
                     xlink:href="#aD"/>
                <use transform="matrix(0.056172839506172835,0,0,0.056172839506172835,33.703703703703695,0)"
                     xlink:href="#at"/>
                <use transform="matrix(0.056172839506172835,0,0,0.056172839506172835,44.938271604938265,0)"
                     xlink:href="#ap"/>
                <use transform="matrix(0.056172839506172835,0,0,0.056172839506172835,50.55555555555555,0)"
                     xlink:href="#aq"/>
            </g>
            <g id="Q">
                <use transform="matrix(0.056172839506172835,0,0,0.056172839506172835,0,0)" xlink:href="#aB"/>
                <use transform="matrix(0.056172839506172835,0,0,0.056172839506172835,11.234567901234566,0)"
                     xlink:href="#ao"/>
                <use transform="matrix(0.056172839506172835,0,0,0.056172839506172835,15.67222222222222,0)"
                     xlink:href="#at"/>
                <use transform="matrix(0.056172839506172835,0,0,0.056172839506172835,26.906790123456787,0)"
                     xlink:href="#aH"/>
                <use transform="matrix(0.056172839506172835,0,0,0.056172839506172835,37.0179012345679,0)"
                     xlink:href="#aq"/>
                <use transform="matrix(0.056172839506172835,0,0,0.056172839506172835,48.25246913580247,0)"
                     xlink:href="#ar"/>
            </g>
            <g id="R">
                <use transform="matrix(0.056172839506172835,0,0,0.056172839506172835,0,0)" xlink:href="#ax"/>
                <use transform="matrix(0.056172839506172835,0,0,0.056172839506172835,10.11111111111111,0)"
                     xlink:href="#aq"/>
                <use transform="matrix(0.056172839506172835,0,0,0.056172839506172835,21.345679012345677,0)"
                     xlink:href="#aO"/>
                <use transform="matrix(0.056172839506172835,0,0,0.056172839506172835,32.58024691358024,0)"
                     xlink:href="#aP"/>
                <use transform="matrix(0.056172839506172835,0,0,0.056172839506172835,43.81481481481481,0)"
                     xlink:href="#aq"/>
                <use transform="matrix(0.056172839506172835,0,0,0.056172839506172835,55.04938271604938,0)"
                     xlink:href="#as"/>
                <use transform="matrix(0.056172839506172835,0,0,0.056172839506172835,66.28395061728395,0)"
                     xlink:href="#aF"/>
                <use transform="matrix(0.056172839506172835,0,0,0.056172839506172835,76.39506172839506,0)"
                     xlink:href="#aq"/>
            </g>
            <path fill="#1d262b" d="M9 0v-24l116-142H16v-24h144v24L44-24h123V0H9" id="aR"/>
            <g id="S">
                <use transform="matrix(0.056172839506172835,0,0,0.056172839506172835,0,0)" xlink:href="#au"/>
                <use transform="matrix(0.056172839506172835,0,0,0.056172839506172835,4.4376543209876536,0)"
                     xlink:href="#as"/>
                <use transform="matrix(0.056172839506172835,0,0,0.056172839506172835,15.67222222222222,0)"
                     xlink:href="#au"/>
                <use transform="matrix(0.056172839506172835,0,0,0.056172839506172835,20.109876543209875,0)"
                     xlink:href="#ap"/>
                <use transform="matrix(0.056172839506172835,0,0,0.056172839506172835,25.727160493827157,0)"
                     xlink:href="#au"/>
                <use transform="matrix(0.056172839506172835,0,0,0.056172839506172835,30.16481481481481,0)"
                     xlink:href="#at"/>
                <use transform="matrix(0.056172839506172835,0,0,0.056172839506172835,41.399382716049374,0)"
                     xlink:href="#ao"/>
                <use transform="matrix(0.056172839506172835,0,0,0.056172839506172835,45.83703703703703,0)"
                     xlink:href="#au"/>
                <use transform="matrix(0.056172839506172835,0,0,0.056172839506172835,50.27469135802468,0)"
                     xlink:href="#aR"/>
                <use transform="matrix(0.056172839506172835,0,0,0.056172839506172835,60.3858024691358,0)"
                     xlink:href="#aq"/>
            </g>
            <g id="T">
                <use transform="matrix(0.056172839506172835,0,0,0.056172839506172835,0,0)" xlink:href="#aB"/>
                <use transform="matrix(0.056172839506172835,0,0,0.056172839506172835,11.234567901234566,0)"
                     xlink:href="#ao"/>
                <use transform="matrix(0.056172839506172835,0,0,0.056172839506172835,15.67222222222222,0)"
                     xlink:href="#at"/>
                <use transform="matrix(0.056172839506172835,0,0,0.056172839506172835,26.906790123456787,0)"
                     xlink:href="#aH"/>
                <use transform="matrix(0.056172839506172835,0,0,0.056172839506172835,37.0179012345679,0)"
                     xlink:href="#aq"/>
                <use transform="matrix(0.056172839506172835,0,0,0.056172839506172835,48.25246913580247,0)"
                     xlink:href="#ar"/>
            </g>
            <g id="U">
                <use transform="matrix(0.056172839506172835,0,0,0.056172839506172835,0,0)" xlink:href="#au"/>
                <use transform="matrix(0.056172839506172835,0,0,0.056172839506172835,4.4376543209876536,0)"
                     xlink:href="#as"/>
                <use transform="matrix(0.056172839506172835,0,0,0.056172839506172835,15.67222222222222,0)"
                     xlink:href="#aM"/>
                <use transform="matrix(0.056172839506172835,0,0,0.056172839506172835,21.289506172839502,0)"
                     xlink:href="#aC"/>
            </g>
            <g id="V">
                <use transform="matrix(0.056172839506172835,0,0,0.056172839506172835,0,0)" xlink:href="#aB"/>
                <use transform="matrix(0.056172839506172835,0,0,0.056172839506172835,11.234567901234566,0)"
                     xlink:href="#ao"/>
                <use transform="matrix(0.056172839506172835,0,0,0.056172839506172835,15.67222222222222,0)"
                     xlink:href="#at"/>
                <use transform="matrix(0.056172839506172835,0,0,0.056172839506172835,26.906790123456787,0)"
                     xlink:href="#aH"/>
                <use transform="matrix(0.056172839506172835,0,0,0.056172839506172835,37.0179012345679,0)"
                     xlink:href="#aq"/>
                <use transform="matrix(0.056172839506172835,0,0,0.056172839506172835,48.25246913580247,0)"
                     xlink:href="#ar"/>
            </g>
            <path fill="#1d262b" d="M30 0v-248h33v221h125V0H30" id="aS"/>
            <g id="W">
                <use transform="matrix(0.056172839506172835,0,0,0.056172839506172835,0,0)" xlink:href="#aS"/>
                <use transform="matrix(0.056172839506172835,0,0,0.056172839506172835,11.234567901234566,0)"
                     xlink:href="#aC"/>
                <use transform="matrix(0.056172839506172835,0,0,0.056172839506172835,22.469135802469133,0)"
                     xlink:href="#aC"/>
                <use transform="matrix(0.056172839506172835,0,0,0.056172839506172835,33.703703703703695,0)"
                     xlink:href="#aB"/>
            </g>
            <g id="X">
                <use transform="matrix(0.056172839506172835,0,0,0.056172839506172835,0,0)" xlink:href="#aw"/>
                <use transform="matrix(0.056172839506172835,0,0,0.056172839506172835,5.617283950617283,0)"
                     xlink:href="#aP"/>
                <use transform="matrix(0.056172839506172835,0,0,0.056172839506172835,16.851851851851848,0)"
                     xlink:href="#as"/>
                <use transform="matrix(0.056172839506172835,0,0,0.056172839506172835,28.086419753086414,0)"
                     xlink:href="#ap"/>
                <use transform="matrix(0.056172839506172835,0,0,0.056172839506172835,33.703703703703695,0)"
                     xlink:href="#au"/>
                <use transform="matrix(0.056172839506172835,0,0,0.056172839506172835,38.14135802469135,0)"
                     xlink:href="#ao"/>
            </g>
            <path fill="#1d262b" d="M266 0h-40l-56-210L115 0H75L2-248h35L96-30l15-64 43-154h32l59 218 59-218h35"
                  id="aT"/>
            <path fill="#1d262b" d="M33 0v-248h34V0H33" id="aU"/>
            <path fill="#1d262b" d="M190 0L58-211 59 0H30v-248h39L202-35l-2-213h31V0h-41" id="aV"/>
            <g id="Y">
                <use transform="matrix(0.056172839506172835,0,0,0.056172839506172835,0,0)" xlink:href="#aT"/>
                <use transform="matrix(0.056172839506172835,0,0,0.056172839506172835,19.04259259259259,0)"
                     xlink:href="#aU"/>
                <use transform="matrix(0.056172839506172835,0,0,0.056172839506172835,24.659876543209876,0)"
                     xlink:href="#aV"/>
            </g>
            <path fill="#1d262b"
                  d="M233-177c-1 41-23 64-60 70L243 0h-38l-65-103H63V0H30v-248c88 3 205-21 203 71zM63-129c60-2 137 13 137-47 0-61-80-42-137-45v92"
                  id="aW"/>
            <g id="Z">
                <use transform="matrix(0.056172839506172835,0,0,0.056172839506172835,0,0)" xlink:href="#aK"/>
                <use transform="matrix(0.056172839506172835,0,0,0.056172839506172835,14.548765432098763,0)"
                     xlink:href="#aW"/>
                <use transform="matrix(0.056172839506172835,0,0,0.056172839506172835,29.097530864197527,0)"
                     xlink:href="#an"/>
                <use transform="matrix(0.056172839506172835,0,0,0.056172839506172835,41.84876543209876,0)"
                     xlink:href="#aT"/>
                <use transform="matrix(0.056172839506172835,0,0,0.056172839506172835,60.89135802469135,0)"
                     xlink:href="#aA"/>
            </g>
            <g id="aa">
                <use transform="matrix(0.056172839506172835,0,0,0.056172839506172835,0,0)" xlink:href="#au"/>
                <use transform="matrix(0.056172839506172835,0,0,0.056172839506172835,4.4376543209876536,0)"
                     xlink:href="#as"/>
                <use transform="matrix(0.056172839506172835,0,0,0.056172839506172835,15.67222222222222,0)"
                     xlink:href="#aB"/>
                <use transform="matrix(0.056172839506172835,0,0,0.056172839506172835,26.906790123456787,0)"
                     xlink:href="#aP"/>
                <use transform="matrix(0.056172839506172835,0,0,0.056172839506172835,38.14135802469136,0)"
                     xlink:href="#ap"/>
            </g>
            <g id="ab">
                <use transform="matrix(0.056172839506172835,0,0,0.056172839506172835,0,0)" xlink:href="#ax"/>
                <use transform="matrix(0.056172839506172835,0,0,0.056172839506172835,10.11111111111111,0)"
                     xlink:href="#at"/>
                <use transform="matrix(0.056172839506172835,0,0,0.056172839506172835,21.345679012345677,0)"
                     xlink:href="#av"/>
                <use transform="matrix(0.056172839506172835,0,0,0.056172839506172835,31.456790123456788,0)"
                     xlink:href="#aq"/>
            </g>
            <g id="ac">
                <use transform="matrix(0.056172839506172835,0,0,0.056172839506172835,0,0)" xlink:href="#aL"/>
                <use transform="matrix(0.056172839506172835,0,0,0.056172839506172835,11.234567901234566,0)"
                     xlink:href="#aC"/>
                <use transform="matrix(0.056172839506172835,0,0,0.056172839506172835,22.469135802469133,0)"
                     xlink:href="#at"/>
                <use transform="matrix(0.056172839506172835,0,0,0.056172839506172835,33.703703703703695,0)"
                     xlink:href="#ar"/>
                <use transform="matrix(0.056172839506172835,0,0,0.056172839506172835,40.38827160493826,0)"
                     xlink:href="#aD"/>
            </g>
            <g id="ad">
                <use transform="matrix(0.056172839506172835,0,0,0.056172839506172835,0,0)" xlink:href="#at"/>
                <use transform="matrix(0.056172839506172835,0,0,0.056172839506172835,11.234567901234566,0)"
                     xlink:href="#as"/>
                <use transform="matrix(0.056172839506172835,0,0,0.056172839506172835,22.469135802469133,0)"
                     xlink:href="#aD"/>
            </g>
            <g id="ae">
                <use transform="matrix(0.056172839506172835,0,0,0.056172839506172835,0,0)" xlink:href="#aB"/>
                <use transform="matrix(0.056172839506172835,0,0,0.056172839506172835,11.234567901234566,0)"
                     xlink:href="#ao"/>
                <use transform="matrix(0.056172839506172835,0,0,0.056172839506172835,15.67222222222222,0)"
                     xlink:href="#at"/>
                <use transform="matrix(0.056172839506172835,0,0,0.056172839506172835,26.906790123456787,0)"
                     xlink:href="#aH"/>
                <use transform="matrix(0.056172839506172835,0,0,0.056172839506172835,37.0179012345679,0)"
                     xlink:href="#aq"/>
                <use transform="matrix(0.056172839506172835,0,0,0.056172839506172835,48.25246913580247,0)"
                     xlink:href="#ar"/>
            </g>
            <g id="af">
                <use transform="matrix(0.056172839506172835,0,0,0.056172839506172835,0,0)" xlink:href="#ax"/>
                <use transform="matrix(0.056172839506172835,0,0,0.056172839506172835,10.11111111111111,0)"
                     xlink:href="#aq"/>
                <use transform="matrix(0.056172839506172835,0,0,0.056172839506172835,21.345679012345677,0)"
                     xlink:href="#aO"/>
                <use transform="matrix(0.056172839506172835,0,0,0.056172839506172835,32.58024691358024,0)"
                     xlink:href="#aP"/>
                <use transform="matrix(0.056172839506172835,0,0,0.056172839506172835,43.81481481481481,0)"
                     xlink:href="#aq"/>
                <use transform="matrix(0.056172839506172835,0,0,0.056172839506172835,55.04938271604938,0)"
                     xlink:href="#as"/>
                <use transform="matrix(0.056172839506172835,0,0,0.056172839506172835,66.28395061728395,0)"
                     xlink:href="#aF"/>
                <use transform="matrix(0.056172839506172835,0,0,0.056172839506172835,76.39506172839506,0)"
                     xlink:href="#aq"/>
            </g>
            <g id="ag">
                <use transform="matrix(0.056172839506172835,0,0,0.056172839506172835,0,0)" xlink:href="#ax"/>
                <use transform="matrix(0.056172839506172835,0,0,0.056172839506172835,10.11111111111111,0)"
                     xlink:href="#at"/>
                <use transform="matrix(0.056172839506172835,0,0,0.056172839506172835,21.345679012345677,0)"
                     xlink:href="#av"/>
                <use transform="matrix(0.056172839506172835,0,0,0.056172839506172835,31.456790123456788,0)"
                     xlink:href="#aq"/>
                <use transform="matrix(0.056172839506172835,0,0,0.056172839506172835,42.691358024691354,0)"
                     xlink:href="#aD"/>
            </g>
            <g id="ah">
                <use transform="matrix(0.056172839506172835,0,0,0.056172839506172835,0,0)" xlink:href="#aF"/>
                <use transform="matrix(0.056172839506172835,0,0,0.056172839506172835,10.11111111111111,0)"
                     xlink:href="#aq"/>
                <use transform="matrix(0.056172839506172835,0,0,0.056172839506172835,21.345679012345677,0)"
                     xlink:href="#ao"/>
                <use transform="matrix(0.056172839506172835,0,0,0.056172839506172835,25.78333333333333,0)"
                     xlink:href="#ao"/>
            </g>
            <g id="ai">
                <use transform="matrix(0.056172839506172835,0,0,0.056172839506172835,0,0)" xlink:href="#aF"/>
                <use transform="matrix(0.056172839506172835,0,0,0.056172839506172835,10.11111111111111,0)"
                     xlink:href="#aC"/>
                <use transform="matrix(0.056172839506172835,0,0,0.056172839506172835,21.345679012345677,0)"
                     xlink:href="#aC"/>
                <use transform="matrix(0.056172839506172835,0,0,0.056172839506172835,32.58024691358024,0)"
                     xlink:href="#ar"/>
                <use transform="matrix(0.056172839506172835,0,0,0.056172839506172835,39.264814814814805,0)"
                     xlink:href="#aD"/>
                <use transform="matrix(0.056172839506172835,0,0,0.056172839506172835,50.49938271604937,0)"
                     xlink:href="#au"/>
                <use transform="matrix(0.056172839506172835,0,0,0.056172839506172835,54.93703703703702,0)"
                     xlink:href="#as"/>
                <use transform="matrix(0.056172839506172835,0,0,0.056172839506172835,66.17160493827159,0)"
                     xlink:href="#at"/>
                <use transform="matrix(0.056172839506172835,0,0,0.056172839506172835,77.40617283950616,0)"
                     xlink:href="#ap"/>
                <use transform="matrix(0.056172839506172835,0,0,0.056172839506172835,83.02345679012343,0)"
                     xlink:href="#aq"/>
                <use transform="matrix(0.056172839506172835,0,0,0.056172839506172835,94.258024691358,0)"
                     xlink:href="#ax"/>
            </g>
            <g id="aj">
                <use transform="matrix(0.056172839506172835,0,0,0.056172839506172835,0,0)" xlink:href="#ar"/>
                <use transform="matrix(0.056172839506172835,0,0,0.056172839506172835,6.684567901234567,0)"
                     xlink:href="#aq"/>
                <use transform="matrix(0.056172839506172835,0,0,0.056172839506172835,17.919135802469135,0)"
                     xlink:href="#ap"/>
                <use transform="matrix(0.056172839506172835,0,0,0.056172839506172835,23.53641975308642,0)"
                     xlink:href="#aP"/>
                <use transform="matrix(0.056172839506172835,0,0,0.056172839506172835,34.77098765432099,0)"
                     xlink:href="#ar"/>
                <use transform="matrix(0.056172839506172835,0,0,0.056172839506172835,41.455555555555556,0)"
                     xlink:href="#as"/>
            </g>
            <g id="ak">
                <use transform="matrix(0.056172839506172835,0,0,0.056172839506172835,0,0)" xlink:href="#ar"/>
                <use transform="matrix(0.056172839506172835,0,0,0.056172839506172835,6.684567901234567,0)"
                     xlink:href="#aq"/>
                <use transform="matrix(0.056172839506172835,0,0,0.056172839506172835,17.919135802469135,0)"
                     xlink:href="#ax"/>
                <use transform="matrix(0.056172839506172835,0,0,0.056172839506172835,28.030246913580246,0)"
                     xlink:href="#aP"/>
                <use transform="matrix(0.056172839506172835,0,0,0.056172839506172835,39.26481481481481,0)"
                     xlink:href="#ao"/>
                <use transform="matrix(0.056172839506172835,0,0,0.056172839506172835,43.70246913580247,0)"
                     xlink:href="#ap"/>
            </g>
            <path fill="#1d262b" d="M30 0v-248h187v28H63v79h144v27H63v87h162V0H30" id="aX"/>
            <path fill="#1d262b"
                  d="M140-251c81 0 123 46 123 126C263-53 228-8 163 1c7 30 30 48 69 40v23c-55 16-95-15-103-61C56-3 17-48 17-125c0-80 42-126 123-126zm0 227c63 0 89-41 89-101s-29-99-89-99c-61 0-89 39-89 99S79-25 140-24"
                  id="aY"/>
            <path fill="#1d262b"
                  d="M232-93c-1 65-40 97-104 97C67 4 28-28 28-90v-158h33c8 89-33 224 67 224 102 0 64-133 71-224h33v155"
                  id="aZ"/>
            <path fill="#1d262b"
                  d="M212-179c-10-28-35-45-73-45-59 0-87 40-87 99 0 60 29 101 89 101 43 0 62-24 78-52l27 14C228-24 195 4 139 4 59 4 22-46 18-125c-6-104 99-153 187-111 19 9 31 26 39 46"
                  id="ba"/>
            <g id="al">
                <use transform="matrix(0.11790123456790114,0,0,0.11790123456790114,0,0)" xlink:href="#aJ"/>
                <use transform="matrix(0.11790123456790114,0,0,0.11790123456790114,28.296296296296273,0)"
                     xlink:href="#aX"/>
                <use transform="matrix(0.11790123456790114,0,0,0.11790123456790114,56.592592592592545,0)"
                     xlink:href="#aY"/>
                <use transform="matrix(0.11790123456790114,0,0,0.11790123456790114,89.60493827160487,0)"
                     xlink:href="#aZ"/>
                <use transform="matrix(0.11790123456790114,0,0,0.11790123456790114,120.14135802469126,0)"
                     xlink:href="#aX"/>
                <use transform="matrix(0.11790123456790114,0,0,0.11790123456790114,148.43765432098752,0)"
                     xlink:href="#aV"/>
                <use transform="matrix(0.11790123456790114,0,0,0.11790123456790114,178.9740740740739,0)"
                     xlink:href="#ba"/>
                <use transform="matrix(0.11790123456790114,0,0,0.11790123456790114,209.5104938271603,0)"
                     xlink:href="#aX"/>
            </g>
            <path fill="#1d262b"
                  d="M240 0l2-218c-23 76-54 145-80 218h-23L58-218 59 0H30v-248h44l77 211c21-75 51-140 76-211h43V0h-30"
                  id="bb"/>
            <g id="am">
                <use transform="matrix(0.11790123456790114,0,0,0.11790123456790114,0,0)" xlink:href="#aK"/>
                <use transform="matrix(0.11790123456790114,0,0,0.11790123456790114,30.536419753086395,0)"
                     xlink:href="#aU"/>
                <use transform="matrix(0.11790123456790114,0,0,0.11790123456790114,42.326543209876505,0)"
                     xlink:href="#an"/>
                <use transform="matrix(0.11790123456790114,0,0,0.11790123456790114,70.62283950617278,0)"
                     xlink:href="#aI"/>
                <use transform="matrix(0.11790123456790114,0,0,0.11790123456790114,103.6351851851851,0)"
                     xlink:href="#aW"/>
                <use transform="matrix(0.11790123456790114,0,0,0.11790123456790114,134.17160493827149,0)"
                     xlink:href="#an"/>
                <use transform="matrix(0.11790123456790114,0,0,0.11790123456790114,162.46790123456776,0)"
                     xlink:href="#bb"/>
            </g>
        </defs>
    </g>
</svg>